<!DOCTYPE svg PUBLIC "-//W3C//DTD SVG 20010904//EN" "http://www.w3.org/TR/2001/REC-SVG-20010904/DTD/svg10.dtd">
<svg version="1.0" xmlns="http://www.w3.org/2000/svg" width="640px" height="480px" viewBox="0 0 6400 4800" preserveAspectRatio="xMidYMid meet">
<g id="layer101" fill="#020605" stroke="none">
 <path d="M3027 3605 c-377 -61 -692 -259 -913 -573 -1 -2 -34 13 -73 32 -67 34 -110 45 -111 29 -1 -5 30 -124 67 -265 60 -229 70 -258 88 -258 11 0 129 41 263 91 180 68 242 96 242 108 0 11 -30 32 -85 59 -47 23 -85 46 -85 52 0 5 38 48 84 94 277 281 681 384 1046 266 105 -34 219 -95 318 -170 51 -38 96 -70 101 -70 10 0 14 24 29 145 l8 60 34 -3 c19 -1 66 -6 103 -10 93 -12 100 5 28 67 -203 176 -417 283 -666 336 -111 23 -364 29 -478 10z"/>
 <path d="M4090 3106 c0 -2 -18 -124 -40 -271 -22 -147 -40 -271 -40 -276 0 -20 32 -6 108 46 l80 55 30 -93 c43 -130 56 -225 50 -369 -18 -420 -273 -778 -662 -929 -39 -15 -72 -34 -74 -43 -2 -8 24 -44 57 -80 34 -36 61 -69 61 -74 0 -5 -18 -34 -40 -66 -68 -97 -57 -104 97 -52 428 144 754 510 859 966 31 131 42 354 25 485 -16 122 -46 242 -88 349 -20 51 -31 91 -26 95 117 76 143 95 143 107 0 15 23 8 -275 89 -227 62 -265 70 -265 61z"/>
 <path d="M2955 2956 c-40 -18 -73 -56 -85 -97 -6 -19 -10 -130 -10 -247 0 -173 -3 -219 -15 -243 -17 -31 -49 -49 -91 -49 -23 0 -24 -3 -24 -60 0 -57 1 -60 24 -60 38 0 74 -17 88 -42 9 -16 14 -92 18 -265 5 -265 6 -267 73 -317 36 -27 130 -33 180 -13 36 16 37 17 37 72 l0 56 -49 -7 c-29 -4 -56 -2 -70 5 -20 11 -21 17 -21 218 0 234 -7 271 -61 322 l-36 35 30 25 c60 50 67 83 67 318 0 205 1 213 21 223 13 7 40 9 70 5 l49 -7 0 56 c0 55 -1 56 -36 71 -45 18 -119 19 -159 1z"/>
 <path d="M3403 2955 c-32 -13 -33 -16 -33 -70 l0 -56 50 7 c41 5 54 3 70 -11 19 -17 20 -32 20 -232 0 -193 2 -218 20 -252 10 -21 32 -48 47 -59 l28 -20 -28 -22 c-15 -12 -36 -39 -47 -61 -18 -34 -20 -59 -20 -253 0 -253 0 -252 -87 -242 l-53 6 0 -55 c0 -50 2 -56 30 -70 71 -37 191 -6 230 58 18 29 20 51 20 242 0 116 5 228 10 249 11 52 38 76 89 83 l41 6 0 57 0 57 -41 6 c-51 7 -78 31 -89 83 -5 21 -10 131 -10 244 0 175 -3 210 -18 240 -33 67 -149 100 -229 65z"/>
 <path d="M1916 2558 c-34 -158 -38 -211 -33 -382 5 -182 26 -291 81 -439 142 -373 466 -678 852 -800 91 -29 229 -57 280 -57 l34 0 0 -77 c0 -88 7 -123 24 -123 17 0 386 373 385 390 0 16 -400 350 -418 350 -7 0 -11 -37 -11 -105 0 -122 8 -116 -113 -85 -398 100 -706 433 -778 840 -15 90 -13 262 5 350 10 45 12 78 7 83 -6 6 -44 -5 -96 -27 -48 -20 -92 -36 -98 -36 -7 0 -25 43 -41 95 -22 72 -33 95 -47 95 -13 0 -21 -16 -33 -72z"/>
 </g>
<g id="layer102" fill="#00699e" stroke="none">
 <path d="M3037 3595 c-353 -58 -674 -249 -873 -520 l-47 -63 -83 41 c-46 23 -85 39 -88 36 -9 -8 128 -509 139 -509 17 -1 495 182 495 189 0 4 -40 27 -90 51 -49 24 -90 47 -90 51 0 17 97 124 160 177 237 200 557 289 851 237 175 -30 322 -95 466 -205 l92 -69 6 42 c3 23 9 69 13 102 8 69 -4 65 147 51 l80 -7 -54 48 c-191 171 -415 285 -666 338 -110 23 -346 28 -458 10z"/>
 <path d="M4100 3093 c0 -5 -18 -125 -40 -268 -21 -143 -37 -261 -36 -263 2 -1 40 22 84 53 44 30 84 55 90 55 14 0 68 -172 82 -262 18 -109 8 -321 -18 -423 -79 -300 -261 -535 -522 -673 -41 -22 -97 -48 -125 -57 -27 -10 -54 -22 -59 -26 -5 -4 16 -34 46 -66 89 -96 86 -83 33 -159 -25 -36 -44 -69 -41 -71 3 -3 49 9 103 27 515 170 873 650 900 1206 11 236 -28 434 -133 670 -3 6 32 35 77 64 68 45 78 55 63 62 -16 7 -493 138 -501 138 -2 0 -3 -3 -3 -7z"/>
 <path d="M2976 2946 c-22 -8 -51 -26 -65 -41 l-26 -25 -5 -243 c-4 -146 -10 -252 -17 -268 -16 -36 -51 -59 -90 -59 -33 0 -33 0 -33 -50 0 -50 0 -50 33 -50 39 0 74 -23 90 -59 7 -16 13 -122 17 -270 l5 -243 38 -33 c47 -40 101 -52 163 -35 l44 13 0 48 c0 48 0 48 -27 38 -14 -5 -39 -7 -55 -4 -54 12 -58 29 -58 263 0 203 -1 216 -22 254 -12 21 -37 48 -55 59 l-33 21 32 22 c18 12 43 37 55 55 22 33 23 42 23 242 0 114 4 219 9 232 12 31 60 49 101 37 l30 -9 0 44 c0 33 -5 47 -19 54 -34 19 -95 21 -135 7z"/>
 <path d="M3434 2951 c-17 -4 -36 -11 -42 -15 -11 -7 -18 -96 -8 -96 3 0 16 4 29 9 16 6 38 6 61 0 50 -14 56 -45 56 -283 0 -183 2 -201 21 -232 11 -19 34 -42 50 -51 16 -10 29 -20 29 -23 0 -3 -14 -13 -30 -22 -16 -9 -39 -32 -50 -50 -18 -30 -20 -50 -20 -233 0 -235 -7 -269 -54 -285 -23 -7 -41 -7 -60 0 -15 5 -29 10 -32 10 -2 0 -4 -20 -4 -45 0 -52 14 -63 88 -71 37 -4 57 0 91 18 76 40 81 58 81 311 0 234 6 269 51 301 13 9 36 16 51 16 27 0 28 2 28 50 0 48 -1 50 -28 50 -15 0 -38 7 -51 16 -45 32 -51 67 -51 300 0 240 -6 268 -64 303 -37 23 -99 32 -142 22z"/>
 <path d="M1936 2593 c-31 -104 -41 -200 -41 -378 1 -207 14 -290 76 -457 139 -379 465 -688 855 -811 91 -29 229 -57 280 -57 l34 0 1 -72 c3 -149 -11 -153 204 62 114 115 186 193 179 198 -6 4 -95 77 -198 162 -103 85 -192 157 -197 159 -7 2 -9 -32 -7 -98 l3 -101 -30 0 c-45 0 -177 36 -256 69 -326 137 -566 439 -630 791 -15 85 -13 288 4 368 8 34 12 64 10 66 -2 2 -47 -14 -100 -36 -52 -22 -98 -36 -102 -31 -4 4 -19 47 -35 96 -27 86 -40 104 -50 70z"/>
 </g>
<g id="layer103" fill="#009391" stroke="none">
 <path d="M4100 3093 c0 -5 -18 -125 -40 -268 -21 -143 -37 -261 -36 -263 2 -1 40 22 84 53 44 30 84 55 90 55 14 0 68 -172 82 -262 18 -109 8 -321 -18 -423 -79 -300 -261 -535 -522 -673 -41 -22 -97 -48 -125 -57 -27 -10 -54 -22 -59 -26 -5 -4 16 -34 46 -66 89 -96 86 -83 33 -159 -25 -36 -44 -69 -41 -71 3 -3 49 9 103 27 515 170 873 650 900 1206 11 236 -28 434 -133 670 -3 6 32 35 77 64 68 45 78 55 63 62 -16 7 -493 138 -501 138 -2 0 -3 -3 -3 -7z"/>
 <path d="M2976 2946 c-22 -8 -51 -26 -65 -41 l-26 -25 -5 -243 c-4 -146 -10 -252 -17 -268 -16 -36 -51 -59 -90 -59 -33 0 -33 0 -33 -50 0 -50 0 -50 33 -50 39 0 74 -23 90 -59 7 -16 13 -122 17 -270 l5 -243 38 -33 c47 -40 101 -52 163 -35 l44 13 0 48 c0 48 0 48 -27 38 -14 -5 -39 -7 -55 -4 -54 12 -58 29 -58 263 0 203 -1 216 -22 254 -12 21 -37 48 -55 59 l-33 21 32 22 c18 12 43 37 55 55 22 33 23 42 23 242 0 114 4 219 9 232 12 31 60 49 101 37 l30 -9 0 44 c0 33 -5 47 -19 54 -34 19 -95 21 -135 7z"/>
 <path d="M3434 2951 c-17 -4 -36 -11 -42 -15 -11 -7 -18 -96 -8 -96 3 0 16 4 29 9 16 6 38 6 61 0 50 -14 56 -45 56 -283 0 -183 2 -201 21 -232 11 -19 34 -42 50 -51 16 -10 29 -20 29 -23 0 -3 -14 -13 -30 -22 -16 -9 -39 -32 -50 -50 -18 -30 -20 -50 -20 -233 0 -235 -7 -269 -54 -285 -23 -7 -41 -7 -60 0 -15 5 -29 10 -32 10 -2 0 -4 -20 -4 -45 0 -52 14 -63 88 -71 37 -4 57 0 91 18 76 40 81 58 81 311 0 234 6 269 51 301 13 9 36 16 51 16 27 0 28 2 28 50 0 48 -1 50 -28 50 -15 0 -38 7 -51 16 -45 32 -51 67 -51 300 0 240 -6 268 -64 303 -37 23 -99 32 -142 22z"/>
 <path d="M1936 2593 c-31 -104 -41 -200 -41 -378 1 -207 14 -290 76 -457 139 -379 465 -688 855 -811 91 -29 229 -57 280 -57 l34 0 1 -72 c3 -149 -11 -153 204 62 114 115 186 193 179 198 -6 4 -95 77 -198 162 -103 85 -192 157 -197 159 -7 2 -9 -32 -7 -98 l3 -101 -30 0 c-45 0 -177 36 -256 69 -326 137 -566 439 -630 791 -15 85 -13 288 4 368 8 34 12 64 10 66 -2 2 -47 -14 -100 -36 -52 -22 -98 -36 -102 -31 -4 4 -19 47 -35 96 -27 86 -40 104 -50 70z"/>
 </g>
<g id="layer104" fill="#00cd7e" stroke="none">
 <path d="M4100 3093 c0 -5 -18 -125 -40 -268 -21 -143 -37 -261 -36 -263 2 -1 40 22 84 53 44 30 84 55 90 55 14 0 68 -172 82 -262 18 -109 8 -321 -18 -423 -79 -300 -261 -535 -522 -673 -41 -22 -97 -48 -125 -57 -27 -10 -54 -22 -59 -26 -5 -4 16 -34 46 -66 89 -96 86 -83 33 -159 -25 -36 -44 -69 -41 -71 3 -3 49 9 103 27 515 170 873 650 900 1206 11 236 -28 434 -133 670 -3 6 32 35 77 64 68 45 78 55 63 62 -16 7 -493 138 -501 138 -2 0 -3 -3 -3 -7z"/>
 <path d="M2972 2944 c-28 -10 -51 -28 -67 -52 -25 -36 -25 -40 -25 -245 0 -121 -5 -227 -11 -253 -14 -53 -48 -84 -95 -84 l-34 0 0 -50 0 -50 34 0 c47 0 81 -31 95 -84 6 -26 11 -132 11 -252 0 -190 2 -209 20 -239 39 -63 108 -87 185 -65 l45 13 0 48 c0 48 0 48 -27 38 -14 -5 -39 -7 -55 -4 -54 12 -58 29 -58 263 0 203 -1 216 -22 254 -12 21 -37 48 -55 59 l-33 21 31 21 c72 49 73 54 79 310 l5 232 39 19 c32 15 45 17 68 8 l28 -10 0 44 c0 32 -5 46 -19 53 -34 19 -95 21 -139 5z"/>
 <path d="M3434 2951 c-48 -12 -54 -19 -54 -67 0 -42 1 -45 23 -38 12 4 27 7 32 7 38 0 57 -6 74 -24 18 -20 20 -37 21 -242 1 -202 2 -223 20 -253 22 -34 53 -59 85 -66 18 -4 18 -6 -5 -16 -32 -14 -50 -30 -78 -66 -21 -27 -22 -37 -22 -230 0 -236 -6 -270 -54 -286 -23 -7 -41 -7 -60 0 -15 5 -29 10 -32 10 -2 0 -4 -20 -4 -45 0 -51 13 -62 82 -71 53 -7 101 12 143 56 l30 31 5 242 c4 155 10 252 18 270 12 29 46 47 88 47 22 0 24 4 24 50 0 48 -1 50 -27 50 -16 0 -39 6 -52 13 -42 21 -50 69 -52 306 -1 242 -6 266 -63 300 -37 23 -99 32 -142 22z"/>
 </g>
<g id="layer105" fill="#23c5ac" stroke="none">
 <path d="M2972 2944 c-28 -10 -51 -28 -67 -52 -25 -36 -25 -40 -25 -245 0 -121 -5 -227 -11 -253 -14 -53 -48 -84 -95 -84 l-34 0 0 -50 0 -50 34 0 c47 0 81 -31 95 -84 6 -26 11 -132 11 -252 0 -190 2 -209 20 -239 39 -63 108 -87 185 -65 l45 13 0 48 c0 48 0 48 -27 38 -14 -5 -39 -7 -55 -4 -54 12 -58 29 -58 263 0 203 -1 216 -22 254 -12 21 -37 48 -55 59 l-33 21 31 21 c72 49 73 54 79 310 l5 232 39 19 c32 15 45 17 68 8 l28 -10 0 44 c0 32 -5 46 -19 53 -34 19 -95 21 -139 5z"/>
 <path d="M3434 2951 c-48 -12 -54 -19 -54 -67 0 -42 1 -45 23 -38 12 4 27 7 32 7 38 0 57 -6 74 -24 18 -20 20 -37 21 -242 1 -202 2 -223 20 -253 22 -34 53 -59 85 -66 18 -4 18 -6 -5 -16 -32 -14 -50 -30 -78 -66 -21 -27 -22 -37 -22 -230 0 -236 -6 -270 -54 -286 -23 -7 -41 -7 -60 0 -15 5 -29 10 -32 10 -2 0 -4 -20 -4 -45 0 -51 13 -62 82 -71 53 -7 101 12 143 56 l30 31 5 242 c4 155 10 252 18 270 12 29 46 47 88 47 22 0 24 4 24 50 0 48 -1 50 -27 50 -16 0 -39 6 -52 13 -42 21 -50 69 -52 306 -1 242 -6 266 -63 300 -37 23 -99 32 -142 22z"/>
 </g>

</svg>